<svg width="29" height="32" viewBox="0 0 29 32" fill="none" xmlns="http://www.w3.org/2000/svg">
<path d="M28.8287 21.4528L26.9012 10.0944C26.1681 7.04709 24.0982 5 21.7493 5C20.197 5 18.7515 5.88732 17.7175 7.45455H11.2816C10.2476 5.88732 8.80213 5 7.24977 5C4.90085 5 2.83104 7.04709 2.09881 10.0944L0.17037 21.4577C0.057092 22.1106 0 22.7697 0 23.4091C0 28.1464 2.84554 32 6.34355 32C8.80304 32 11.0287 30.0597 12.07 27.0909H16.93C17.9713 30.0597 20.197 32 22.6564 32C26.1545 32 29 28.1464 29 23.4091C28.9991 22.7697 28.942 22.1106 28.8287 21.4528ZM22.6555 30.7727C20.2894 30.7727 18.2812 28.722 17.5345 25.8636H11.4646C10.717 28.722 8.7097 30.7727 6.34355 30.7727C3.34033 30.7727 0.906222 27.4763 0.906222 23.4091C0.906222 22.831 0.960595 22.2714 1.05303 21.7326L2.95972 10.4749C3.55148 8.01664 5.23706 6.22727 7.24977 6.22727C8.72691 6.22727 10.0273 7.19927 10.8538 8.68182H18.1444C18.9718 7.19927 20.2722 6.22727 21.7493 6.22727C23.762 6.22727 25.4476 8.01664 26.0385 10.4749L27.9452 21.7326C28.0385 22.2714 28.0929 22.831 28.0929 23.4091C28.0929 27.4763 25.6588 30.7727 22.6555 30.7727ZM18.1244 12.3636C17.1231 12.3636 16.312 13.462 16.312 14.8182C16.312 16.1743 17.1231 17.2727 18.1244 17.2727C19.1258 17.2727 19.9369 16.1743 19.9369 14.8182C19.9369 13.462 19.1258 12.3636 18.1244 12.3636ZM18.1244 16.0455C17.6251 16.0455 17.2182 15.4944 17.2182 14.8182C17.2182 14.142 17.6251 13.5909 18.1244 13.5909C18.6238 13.5909 19.0307 14.142 19.0307 14.8182C19.0307 15.4944 18.6238 16.0455 18.1244 16.0455ZM22.6555 11.1364C21.6542 11.1364 20.8431 12.2348 20.8431 13.5909C20.8431 14.947 21.6542 16.0455 22.6555 16.0455C23.6569 16.0455 24.468 14.947 24.468 13.5909C24.468 12.2348 23.6569 11.1364 22.6555 11.1364ZM22.6555 14.8182C22.1562 14.8182 21.7493 14.2671 21.7493 13.5909C21.7493 12.9147 22.1562 12.3636 22.6555 12.3636C23.1549 12.3636 23.5618 12.9147 23.5618 13.5909C23.5618 14.2671 23.1549 14.8182 22.6555 14.8182ZM18.1244 18.5C17.1231 18.5 16.312 19.5984 16.312 20.9545C16.312 22.3107 17.1231 23.4091 18.1244 23.4091C19.1258 23.4091 19.9369 22.3107 19.9369 20.9545C19.9369 19.5984 19.1258 18.5 18.1244 18.5ZM18.1244 22.1818C17.6251 22.1818 17.2182 21.6308 17.2182 20.9545C17.2182 20.2783 17.6251 19.7273 18.1244 19.7273C18.6238 19.7273 19.0307 20.2783 19.0307 20.9545C19.0307 21.6308 18.6238 22.1818 18.1244 22.1818ZM22.6555 17.2727C21.6542 17.2727 20.8431 18.3711 20.8431 19.7273C20.8431 21.0834 21.6542 22.1818 22.6555 22.1818C23.6569 22.1818 24.468 21.0834 24.468 19.7273C24.468 18.3711 23.6569 17.2727 22.6555 17.2727ZM22.6555 20.9545C22.1562 20.9545 21.7493 20.4035 21.7493 19.7273C21.7493 19.051 22.1562 18.5 22.6555 18.5C23.1549 18.5 23.5618 19.051 23.5618 19.7273C23.5618 20.4035 23.1549 20.9545 22.6555 20.9545ZM9.96844 14.8182H9.06222V13.5909C9.06222 12.9135 8.65623 12.3636 8.156 12.3636H6.34355C5.84332 12.3636 5.43733 12.9135 5.43733 13.5909V14.8182H4.53111C4.03087 14.8182 3.62489 15.368 3.62489 16.0455V18.5C3.62489 19.1775 4.03087 19.7273 4.53111 19.7273H5.43733V20.9545C5.43733 21.632 5.84332 22.1818 6.34355 22.1818H8.156C8.65623 22.1818 9.06222 21.632 9.06222 20.9545V19.7273H9.96844C10.4687 19.7273 10.8747 19.1775 10.8747 18.5V16.0455C10.8747 15.368 10.4687 14.8182 9.96844 14.8182ZM9.96844 18.5H8.156V20.9545H6.34355V18.5H4.53111V16.0455H6.34355V13.5909H8.156V16.0455H9.96844V18.5Z" fill="white"/>
</svg>
