<svg width="24" height="24" viewBox="0 0 24 24" fill="none" xmlns="http://www.w3.org/2000/svg">
<path d="M12 23C13.4451 23.004 14.8766 22.7212 16.2117 22.1682C17.5469 21.6151 18.759 20.8027 19.778 19.778C19.9655 19.5905 20.0708 19.3362 20.0708 19.071C20.0708 18.8058 19.9655 18.5515 19.778 18.364L13.414 12L19.778 5.636C19.9655 5.44847 20.0708 5.19416 20.0708 4.929C20.0708 4.66384 19.9655 4.40953 19.778 4.222C18.4989 2.94283 16.924 1.99886 15.1929 1.47371C13.4618 0.948559 11.628 0.858444 9.85374 1.21134C8.07951 1.56424 6.4197 2.34927 5.02133 3.49687C3.62296 4.64448 2.5292 6.11924 1.83694 7.79053C1.14468 9.46182 0.875285 11.278 1.05262 13.0783C1.22995 14.8786 1.84854 16.6073 2.85358 18.1114C3.85863 19.6155 5.21911 20.8486 6.81451 21.7013C8.40992 22.554 10.191 23.0001 12 23V23ZM12 3C14.0425 2.99413 16.0253 3.68835 17.618 4.967L11.293 11.293C11.1055 11.4805 11.0002 11.7348 11.0002 12C11.0002 12.2652 11.1055 12.5195 11.293 12.707L17.618 19.033C16.4947 19.93 15.1728 20.5448 13.7631 20.8261C12.3534 21.1073 10.8968 21.0468 9.51525 20.6496C8.13372 20.2523 6.86744 19.53 5.82238 18.5429C4.77733 17.5559 3.98392 16.3328 3.50855 14.9762C3.03319 13.6196 2.8897 12.1688 3.0901 10.7453C3.29049 9.32187 3.82895 7.96711 4.66039 6.79446C5.49183 5.6218 6.59207 4.66537 7.86902 4.0052C9.14597 3.34504 10.5625 3.00036 12 3V3ZM23 12C23 12.3956 22.8827 12.7822 22.6629 13.1111C22.4432 13.44 22.1308 13.6964 21.7654 13.8478C21.3999 13.9991 20.9978 14.0387 20.6098 13.9616C20.2218 13.8844 19.8655 13.6939 19.5858 13.4142C19.3061 13.1345 19.1156 12.7781 19.0384 12.3902C18.9612 12.0022 19.0009 11.6001 19.1522 11.2346C19.3036 10.8692 19.5599 10.5568 19.8888 10.3371C20.2177 10.1173 20.6044 10 21 10C21.5304 10 22.0391 10.2107 22.4142 10.5858C22.7893 10.9609 23 11.4696 23 12ZM7.99999 7C7.99999 6.60444 8.11728 6.21776 8.33705 5.88886C8.55681 5.55996 8.86917 5.30362 9.23462 5.15224C9.60007 5.00087 10.0022 4.96126 10.3902 5.03843C10.7781 5.1156 11.1345 5.30608 11.4142 5.58579C11.6939 5.86549 11.8844 6.22186 11.9616 6.60982C12.0387 6.99778 11.9991 7.39992 11.8477 7.76537C11.6964 8.13082 11.44 8.44318 11.1111 8.66294C10.7822 8.8827 10.3955 9 9.99999 9C9.46955 9 8.96085 8.78929 8.58577 8.41421C8.2107 8.03914 7.99999 7.53043 7.99999 7Z" fill="#FCEAAB"/>
</svg>
