<svg width="23" height="22" viewBox="0 0 23 22" fill="none" xmlns="http://www.w3.org/2000/svg">
<path d="M22.9309 20.4187L15.4646 13.2769C16.6232 11.8442 17.2499 10.0925 17.2499 8.24996C17.2499 6.04447 16.3501 3.97648 14.7228 2.41724C13.0956 0.857996 10.9278 0 8.62496 0C6.3221 0 4.15436 0.860746 2.52711 2.41724C0.896996 3.97373 0 6.04447 0 8.24996C0 10.4527 0.899871 12.5262 2.52711 14.0827C4.15436 15.6419 6.31922 16.4999 8.62496 16.4999C10.5512 16.4999 12.3797 15.9004 13.8776 14.7949L21.3439 21.9339C21.3658 21.9549 21.3918 21.9715 21.4204 21.9828C21.449 21.9942 21.4797 22 21.5107 22C21.5416 22 21.5723 21.9942 21.6009 21.9828C21.6295 21.9715 21.6555 21.9549 21.6774 21.9339L22.9309 20.7377C22.9528 20.7167 22.9702 20.6919 22.982 20.6645C22.9939 20.6371 23 20.6078 23 20.5782C23 20.5485 22.9939 20.5192 22.982 20.4918C22.9702 20.4645 22.9528 20.4396 22.9309 20.4187ZM13.1789 12.6059C11.9599 13.7692 10.3442 14.4099 8.62496 14.4099C6.90572 14.4099 5.28998 13.7692 4.07098 12.6059C2.85486 11.44 2.18499 9.89446 2.18499 8.24996C2.18499 6.60547 2.85486 5.05723 4.07098 3.89398C5.28998 2.73074 6.90572 2.08999 8.62496 2.08999C10.3442 2.08999 11.9628 2.72799 13.1789 3.89398C14.3951 5.05998 15.0649 6.60547 15.0649 8.24996C15.0649 9.89446 14.3951 11.4427 13.1789 12.6059Z" fill="#494953"/>
</svg>
