<svg width="26" height="33" viewBox="0 0 26 33" fill="none" xmlns="http://www.w3.org/2000/svg">
<path d="M22.3833 3.11515C20.0549 1.10228 16.9582 0 13.6519 0H12.3481C9.04179 0 5.94507 1.10913 3.61672 3.11515C1.28836 5.12801 0 7.81867 0 10.6805V22.3743C0 25.2361 1.28836 27.9131 3.61672 29.9122C5.93731 31.9046 9.04179 33 12.3481 33H13.6519C16.9582 33 20.0549 31.9046 22.3833 29.9122C24.7194 27.9131 26 25.2361 26 22.3743V10.6805C26 7.81867 24.7194 5.13485 22.3833 3.11515ZM13 6.67531C13.9857 6.67531 14.7851 7.3805 14.7851 8.25C14.7851 9.1195 13.9857 9.82469 13 9.82469C12.0143 9.82469 11.2149 9.1195 11.2149 8.25C11.2149 7.38734 12.0143 6.67531 13 6.67531ZM1.55224 10.6805C1.55224 5.57988 6.32537 1.43091 12.2239 1.36929V5.38817C10.757 5.69627 9.66269 6.86017 9.66269 8.25C9.66269 9.63983 10.757 10.8037 12.2239 11.1118V14.3434H1.55224V10.6805ZM24.4478 22.3743C24.4478 27.4749 19.6048 31.6307 13.6519 31.6307H12.3481C6.39522 31.6307 1.55224 27.4749 1.55224 22.3743V15.7127H24.4478V22.3743ZM24.4478 14.3434H13.7761V11.1118C15.243 10.8037 16.3373 9.63983 16.3373 8.25C16.3373 6.86017 15.243 5.69627 13.7761 5.38817V1.36929C19.6746 1.42407 24.4478 5.57988 24.4478 10.6805V14.3434Z" fill="white"/>
</svg>
